<svg width="19" height="20" viewBox="0 0 19 20" fill="none" xmlns="http://www.w3.org/2000/svg">
<path opacity="0.5" d="M17.4167 11.1567V9.41349C17.4167 7.32982 17.4167 6.2872 16.8071 5.61032C16.7512 5.54784 16.692 5.48838 16.6298 5.4322C15.9529 4.8234 14.9102 4.8234 12.8266 4.8234H12.5305C11.6177 4.8234 11.1609 4.8234 10.735 4.70228C10.5013 4.63547 10.276 4.54196 10.0637 4.42361C9.67733 4.20907 9.35433 3.88528 8.70833 3.24007L8.27292 2.80465C8.056 2.58774 7.94833 2.48007 7.83433 2.38507C7.34403 1.97866 6.74257 1.72953 6.1085 1.6702C5.96125 1.65674 5.80767 1.65674 5.50208 1.65674C4.80304 1.65674 4.45392 1.65674 4.16258 1.71215C3.53704 1.83029 2.96162 2.13422 2.51141 2.5843C2.06119 3.03437 1.75708 3.60969 1.63875 4.2352C1.58333 4.52732 1.58333 4.87724 1.58333 5.57549V11.1567C1.58333 14.1421 1.58333 15.6352 2.51117 16.5622C3.43821 17.4901 4.93129 17.4901 7.91667 17.4901H11.0833C14.0687 17.4901 15.5618 17.4901 16.4888 16.5622C17.4167 15.6352 17.4167 14.1421 17.4167 11.1567Z" fill="#C4C4C4"/>
<path d="M9.69792 7.99008C9.69792 7.83261 9.76047 7.68159 9.87182 7.57024C9.98317 7.45889 10.1342 7.39633 10.2917 7.39633H14.25C14.4075 7.39633 14.5585 7.45889 14.6698 7.57024C14.7812 7.68159 14.8438 7.83261 14.8438 7.99008C14.8438 8.14755 14.7812 8.29858 14.6698 8.40993C14.5585 8.52128 14.4075 8.58383 14.25 8.58383H10.2917C10.1342 8.58383 9.98317 8.52128 9.87182 8.40993C9.76047 8.29858 9.69792 8.14755 9.69792 7.99008Z" fill="#2D2D28"/>
</svg>
